# xmcd
#
# Track frame offsets:
#	150
#	19372
#	34310
#	51256
#	68851
#	86147
#	102997
#	123093
#	141406
#	158279
#	175271
#
# Disc length: 2586 seconds
#
# Revision: 343320089
# Processed by: cddbd v1.5.2PL0 Copyright (c) Steve Scherf et al.
# Submitted via: EZCDAudioConverter 8.0.7.1
#
DISCID=940a180b
DTITLE=Gloriana - A Thousand Miles Left Behind
DYEAR=2012
DGENRE=Country
TTITLE0=Gold Rush
TTITLE1=Sunset Lovin'
TTITLE2=Wanna Take You Home
TTITLE3=(Kissed You) Good Night
TTITLE4=Carolina Rose
TTITLE5=Go On... Miss Me
TTITLE6=Can't Shake You
TTITLE7=Soldier Song
TTITLE8=Turn My World Around
TTITLE9=Doing It Our Way
TTITLE10=Where My Heart Belongs
EXTD=
EXTT0=
EXTT1=
EXTT2=
EXTT3=
EXTT4=
EXTT5=
EXTT6=
EXTT7=
EXTT8=
EXTT9=
EXTT10=
PLAYORDER=
